<mxfile host="app.diagrams.net" agent="Mozilla/5.0 (Windows NT 10.0; Win64; x64) AppleWebKit/537.36 (KHTML, like Gecko) Chrome/130.0.0.0 Safari/537.36" version="24.8.6">
  <diagram name="Trang-1" id="WUncd6c2GqcuIIX2hMuS">
    <mxGraphModel dx="1502" dy="522" grid="1" gridSize="10" guides="1" tooltips="1" connect="1" arrows="1" fold="1" page="1" pageScale="1" pageWidth="827" pageHeight="1169" math="0" shadow="0">
      <root>
        <mxCell id="0" />
        <mxCell id="1" parent="0" />
        <mxCell id="rpT6EUCyQif32mLcfLgq-1" value="Mỹ&amp;nbsp;" style="ellipse;whiteSpace=wrap;html=1;aspect=fixed;" vertex="1" parent="1">
          <mxGeometry x="350" y="390" width="40" height="40" as="geometry" />
        </mxCell>
        <mxCell id="rpT6EUCyQif32mLcfLgq-2" value="Anh" style="ellipse;whiteSpace=wrap;html=1;aspect=fixed;" vertex="1" parent="1">
          <mxGeometry x="110" y="230" width="40" height="40" as="geometry" />
        </mxCell>
        <mxCell id="rpT6EUCyQif32mLcfLgq-9" value="" style="endArrow=none;html=1;rounded=0;exitX=1;exitY=0.5;exitDx=0;exitDy=0;" edge="1" parent="1" source="rpT6EUCyQif32mLcfLgq-2" target="rpT6EUCyQif32mLcfLgq-1">
          <mxGeometry width="50" height="50" relative="1" as="geometry">
            <mxPoint x="450" y="370" as="sourcePoint" />
            <mxPoint x="500" y="320" as="targetPoint" />
          </mxGeometry>
        </mxCell>
        <mxCell id="rpT6EUCyQif32mLcfLgq-10" value="Pháp" style="ellipse;whiteSpace=wrap;html=1;aspect=fixed;" vertex="1" parent="1">
          <mxGeometry x="150" y="110" width="40" height="40" as="geometry" />
        </mxCell>
        <mxCell id="rpT6EUCyQif32mLcfLgq-11" value="" style="endArrow=none;html=1;rounded=0;entryX=0;entryY=0.5;entryDx=0;entryDy=0;" edge="1" parent="1" source="rpT6EUCyQif32mLcfLgq-2" target="rpT6EUCyQif32mLcfLgq-10">
          <mxGeometry width="50" height="50" relative="1" as="geometry">
            <mxPoint x="160" y="260" as="sourcePoint" />
            <mxPoint x="250" y="260" as="targetPoint" />
          </mxGeometry>
        </mxCell>
        <mxCell id="rpT6EUCyQif32mLcfLgq-12" value="Tây Đức" style="ellipse;whiteSpace=wrap;html=1;aspect=fixed;" vertex="1" parent="1">
          <mxGeometry x="230" y="480" width="40" height="40" as="geometry" />
        </mxCell>
        <mxCell id="rpT6EUCyQif32mLcfLgq-14" value="" style="endArrow=none;html=1;rounded=0;entryX=0;entryY=0;entryDx=0;entryDy=0;" edge="1" parent="1" source="rpT6EUCyQif32mLcfLgq-2" target="rpT6EUCyQif32mLcfLgq-12">
          <mxGeometry width="50" height="50" relative="1" as="geometry">
            <mxPoint x="136" y="296" as="sourcePoint" />
            <mxPoint x="230" y="364" as="targetPoint" />
          </mxGeometry>
        </mxCell>
        <mxCell id="rpT6EUCyQif32mLcfLgq-15" value="Ý" style="ellipse;whiteSpace=wrap;html=1;aspect=fixed;" vertex="1" parent="1">
          <mxGeometry x="270" y="70" width="40" height="40" as="geometry" />
        </mxCell>
        <mxCell id="rpT6EUCyQif32mLcfLgq-16" value="" style="endArrow=none;html=1;rounded=0;" edge="1" parent="1" source="rpT6EUCyQif32mLcfLgq-2" target="rpT6EUCyQif32mLcfLgq-15">
          <mxGeometry width="50" height="50" relative="1" as="geometry">
            <mxPoint x="160" y="260" as="sourcePoint" />
            <mxPoint x="250" y="260" as="targetPoint" />
          </mxGeometry>
        </mxCell>
        <mxCell id="rpT6EUCyQif32mLcfLgq-17" value="Tây Ban Nha" style="ellipse;whiteSpace=wrap;html=1;aspect=fixed;" vertex="1" parent="1">
          <mxGeometry x="370" y="170" width="60" height="60" as="geometry" />
        </mxCell>
        <mxCell id="rpT6EUCyQif32mLcfLgq-18" value="" style="endArrow=none;html=1;rounded=0;exitX=1;exitY=0;exitDx=0;exitDy=0;" edge="1" parent="1" source="rpT6EUCyQif32mLcfLgq-2" target="rpT6EUCyQif32mLcfLgq-17">
          <mxGeometry width="50" height="50" relative="1" as="geometry">
            <mxPoint x="156" y="249" as="sourcePoint" />
            <mxPoint x="254" y="181" as="targetPoint" />
          </mxGeometry>
        </mxCell>
        <mxCell id="rpT6EUCyQif32mLcfLgq-19" value="Bỉ" style="ellipse;whiteSpace=wrap;html=1;aspect=fixed;" vertex="1" parent="1">
          <mxGeometry x="370" y="280" width="40" height="40" as="geometry" />
        </mxCell>
        <mxCell id="rpT6EUCyQif32mLcfLgq-20" value="" style="endArrow=none;html=1;rounded=0;entryX=0;entryY=0;entryDx=0;entryDy=0;" edge="1" parent="1" source="rpT6EUCyQif32mLcfLgq-2" target="rpT6EUCyQif32mLcfLgq-19">
          <mxGeometry width="50" height="50" relative="1" as="geometry">
            <mxPoint x="154" y="246" as="sourcePoint" />
            <mxPoint x="301" y="216" as="targetPoint" />
          </mxGeometry>
        </mxCell>
        <mxCell id="5VRIrBrAdgkX-EXc7tT6-1" value="" style="endArrow=none;dashed=1;html=1;rounded=0;entryX=0;entryY=1;entryDx=0;entryDy=0;" edge="1" parent="1" source="5VRIrBrAdgkX-EXc7tT6-2" target="rpT6EUCyQif32mLcfLgq-10">
          <mxGeometry width="50" height="50" relative="1" as="geometry">
            <mxPoint x="280" y="370" as="sourcePoint" />
            <mxPoint x="330" y="320" as="targetPoint" />
          </mxGeometry>
        </mxCell>
        <mxCell id="5VRIrBrAdgkX-EXc7tT6-2" value="Liên Xô" style="ellipse;whiteSpace=wrap;html=1;aspect=fixed;" vertex="1" parent="1">
          <mxGeometry x="130" y="410" width="40" height="40" as="geometry" />
        </mxCell>
        <mxCell id="5VRIrBrAdgkX-EXc7tT6-3" value="" style="endArrow=none;html=1;rounded=0;" edge="1" parent="1" source="rpT6EUCyQif32mLcfLgq-1" target="rpT6EUCyQif32mLcfLgq-10">
          <mxGeometry width="50" height="50" relative="1" as="geometry">
            <mxPoint x="156" y="272" as="sourcePoint" />
            <mxPoint x="250" y="340" as="targetPoint" />
          </mxGeometry>
        </mxCell>
        <mxCell id="5VRIrBrAdgkX-EXc7tT6-4" value="" style="endArrow=none;html=1;rounded=0;entryX=0.345;entryY=1.05;entryDx=0;entryDy=0;entryPerimeter=0;" edge="1" parent="1" source="rpT6EUCyQif32mLcfLgq-12" target="rpT6EUCyQif32mLcfLgq-10">
          <mxGeometry width="50" height="50" relative="1" as="geometry">
            <mxPoint x="156" y="272" as="sourcePoint" />
            <mxPoint x="260" y="350" as="targetPoint" />
          </mxGeometry>
        </mxCell>
        <mxCell id="5VRIrBrAdgkX-EXc7tT6-5" value="" style="endArrow=none;html=1;rounded=0;" edge="1" parent="1" source="rpT6EUCyQif32mLcfLgq-15" target="rpT6EUCyQif32mLcfLgq-10">
          <mxGeometry width="50" height="50" relative="1" as="geometry">
            <mxPoint x="246" y="421" as="sourcePoint" />
            <mxPoint x="264" y="362" as="targetPoint" />
          </mxGeometry>
        </mxCell>
        <mxCell id="5VRIrBrAdgkX-EXc7tT6-6" value="" style="endArrow=none;html=1;rounded=0;exitX=1;exitY=0.5;exitDx=0;exitDy=0;entryX=0.27;entryY=0.927;entryDx=0;entryDy=0;entryPerimeter=0;" edge="1" parent="1" source="rpT6EUCyQif32mLcfLgq-10" target="rpT6EUCyQif32mLcfLgq-17">
          <mxGeometry width="50" height="50" relative="1" as="geometry">
            <mxPoint x="154" y="246" as="sourcePoint" />
            <mxPoint x="301" y="216" as="targetPoint" />
          </mxGeometry>
        </mxCell>
        <mxCell id="5VRIrBrAdgkX-EXc7tT6-7" value="" style="endArrow=none;html=1;rounded=0;exitX=1;exitY=1;exitDx=0;exitDy=0;" edge="1" parent="1" source="rpT6EUCyQif32mLcfLgq-10" target="rpT6EUCyQif32mLcfLgq-19">
          <mxGeometry width="50" height="50" relative="1" as="geometry">
            <mxPoint x="290" y="340" as="sourcePoint" />
            <mxPoint x="316" y="236" as="targetPoint" />
          </mxGeometry>
        </mxCell>
        <mxCell id="5VRIrBrAdgkX-EXc7tT6-9" value=" Ba Lan" style="ellipse;whiteSpace=wrap;html=1;aspect=fixed;" vertex="1" parent="1">
          <mxGeometry x="340" y="120" width="40" height="40" as="geometry" />
        </mxCell>
        <mxCell id="5VRIrBrAdgkX-EXc7tT6-10" value="" style="endArrow=none;dashed=1;html=1;rounded=0;entryX=1;entryY=0.5;entryDx=0;entryDy=0;exitX=0;exitY=0.5;exitDx=0;exitDy=0;" edge="1" parent="1" source="5VRIrBrAdgkX-EXc7tT6-9" target="rpT6EUCyQif32mLcfLgq-10">
          <mxGeometry width="50" height="50" relative="1" as="geometry">
            <mxPoint x="160" y="420" as="sourcePoint" />
            <mxPoint x="166" y="154" as="targetPoint" />
          </mxGeometry>
        </mxCell>
        <mxCell id="5VRIrBrAdgkX-EXc7tT6-12" value="" style="endArrow=none;html=1;rounded=0;" edge="1" parent="1" source="rpT6EUCyQif32mLcfLgq-12" target="rpT6EUCyQif32mLcfLgq-1">
          <mxGeometry width="50" height="50" relative="1" as="geometry">
            <mxPoint x="160" y="260" as="sourcePoint" />
            <mxPoint x="364" y="408" as="targetPoint" />
          </mxGeometry>
        </mxCell>
        <mxCell id="5VRIrBrAdgkX-EXc7tT6-13" value="" style="endArrow=none;html=1;rounded=0;exitX=0;exitY=0.5;exitDx=0;exitDy=0;" edge="1" parent="1" source="rpT6EUCyQif32mLcfLgq-12" target="rpT6EUCyQif32mLcfLgq-2">
          <mxGeometry width="50" height="50" relative="1" as="geometry">
            <mxPoint x="260" y="437" as="sourcePoint" />
            <mxPoint x="360" y="423" as="targetPoint" />
          </mxGeometry>
        </mxCell>
      </root>
    </mxGraphModel>
  </diagram>
</mxfile>
